<svg height="511pt" viewBox="1 0 511.99998 511" width="511pt" xmlns="http://www.w3.org/2000/svg" fill="#fff"><path d="m420.539062 247.617188v-82.519532c0-90.757812-73.839843-164.597656-164.597656-164.597656-90.761718 0-164.597656 73.839844-164.597656 164.597656v82.519532c0 130.816406-77.804688 205.121093-81.359375 210.5625l-9.984375 15.285156c19.535156 8.320312 13.273438 4.375 25.242188 11.257812 16.113281 9.273438 46.105468 26.527344 94.59375 26.527344 31.03125 0 60.847656-7.101562 88.625-21.105469 29.984374-15.117187 64.414062-15.097656 94.464843.0625 27.6875 13.964844 57.671875 21.042969 89.121094 21.042969 47.855469 0 75.734375-17.679688 90.707031-27.175781 12.269532-7.785157 5.191406-2.898438 29.246094-13.253907-4.921875-8.773437-91.460938-64.628906-91.460938-223.203124zm-28.496093 233.707031c-26.722657 0-52.171875-6.003907-75.640625-17.839844-18.804688-9.480469-39.789063-14.503906-60.695313-14.519531-.039062 0-.070312 0-.105469 0-20.894531 0-41.855468 4.996094-60.613281 14.457031-23.558593 11.878906-48.84375 17.902344-75.152343 17.902344-35.4375 0-58.648438-10.804688-73.710938-19.15625 20.882812-25.414063 39.519531-57.101563 52.742188-91.667969 8.054687 12.074219 21.792968 20.046875 37.367187 20.046875 24.75 0 44.890625-20.136719 44.890625-44.890625v-74.816406h-29.929688v74.816406c0 8.25-6.710937 14.964844-14.960937 14.964844-8.253906 0-14.964844-6.714844-14.964844-14.964844 0 0-.039062-95.472656 0-180.558594 0-74.257812 60.414063-134.667968 134.671875-134.667968 74.257813 0 134.667969 60.410156 134.667969 134.667968.027344 85.941406 0 180.558594 0 180.558594 0 8.25-6.710937 14.964844-14.960937 14.964844s-14.964844-6.714844-14.964844-14.964844v-74.816406h-29.925782v74.816406c0 24.753906 20.136719 44.890625 44.890626 44.890625 14.300781 0 27.046874-6.726563 35.273437-17.175781 11.902344 33.371094 28.933594 63.113281 50.847656 88.539062-14.113281 8.683594-34.875 19.414063-69.726562 19.414063zm0 0"/><path d="m181.125 120.207031h29.925781v29.925781h-29.925781zm0 0"/><path d="m300.832031 120.207031h29.925781v29.925781h-29.925781zm0 0"/><path d="m255.941406 180.0625c-24.753906 0-44.890625 20.136719-44.890625 44.886719v30.925781c0 24.753906 20.136719 44.890625 44.890625 44.890625 24.75 0 44.890625-20.136719 44.890625-44.890625v-30.925781c0-24.75-20.136719-44.886719-44.890625-44.886719zm14.960938 75.8125c0 8.25-6.710938 14.964844-14.960938 14.964844-8.253906 0-14.964844-6.714844-14.964844-14.964844v-30.925781c0-8.25 6.710938-14.960938 14.964844-14.960938 8.25 0 14.960938 6.710938 14.960938 14.960938zm0 0"/></svg>
